<svg id="Слой_1" data-name="Слой 1" xmlns="http://www.w3.org/2000/svg" xmlns:xlink="http://www.w3.org/1999/xlink" viewBox="0 0 1776.4 320"><defs><style>.cls-1{fill:#fff;}.cls-2{fill:url(#Безымянный_градиент_10);}.cls-3{fill:url(#Безымянный_градиент_10-2);}.cls-4{font-size:224.22px;font-family:PhonkSans-Light, Phonk Sans;font-weight:300;}.cls-5{letter-spacing:-0.01em;}.cls-6{letter-spacing:0em;}.cls-7{letter-spacing:0em;}</style><linearGradient id="Безымянный_градиент_10" x1="157.34" y1="290.35" x2="158.55" y2="289.45" gradientUnits="userSpaceOnUse"><stop offset="0" stop-color="#84f4ac"/><stop offset="0.99" stop-color="#4ca4ff"/></linearGradient><linearGradient id="Безымянный_градиент_10-2" x1="56.72" y1="236.72" x2="257.96" y2="87.24" xlink:href="#Безымянный_градиент_10"/></defs><circle class="cls-1" cx="160" cy="160" r="160"/><path class="cls-2" d="M157,290c.64,0,1.29,0,1.94,0l-1-1Z"/><path class="cls-3" d="M176.54,159,244.2,61A130,130,0,0,0,78.6,58.65a43,43,0,1,1-35.55,44.52,130.09,130.09,0,0,0,74.16,179.61l17.28-17.28L93.13,224.13l23-23L157.5,242.5l43-43L224,223l-43,43,18,18a130.08,130.08,0,0,0,90.79-117.11Z"/><text class="cls-4" transform="translate(344.53 236.8)">C<tspan class="cls-5" x="236.33" y="0">r</tspan><tspan class="cls-6" x="360.1" y="0">e</tspan><tspan class="cls-7" x="571.76" y="0">ag</tspan><tspan x="1009.45" y="0">oo</tspan></text></svg>