<svg id="Слой_1" data-name="Слой 1" xmlns="http://www.w3.org/2000/svg" viewBox="0 0 1656.04 631"><defs><style>.cls-1{fill:#191919;}</style></defs><path class="cls-1" d="M947.78,469q55.11,47.73,55.11,146.3V849H865.51V794.63Q833.68,856,741.33,855.94q-48.9,0-84.6-17.07t-53.94-46.18q-18.24-29.12-18.24-66.36,0-59.76,45.79-92.75t141.26-33h83.82q-3.88-66.74-89.25-66.75a204.71,204.71,0,0,0-61.32,9.71q-31.05,9.71-52.78,26.77L602.4,470.2q34.94-23.28,85-36.09A403.92,403.92,0,0,1,787.9,421.3Q892.68,421.3,947.78,469ZM827.48,750.39q19.39-12.4,27.94-36.48V677.43H791.78q-64.44,0-64.42,42.69,0,19.41,14.75,31t40.36,11.64Q808.08,762.8,827.48,750.39Z" transform="translate(-131.51 -224.94)"/><path class="cls-1" d="M1104.56,359.21q-24.86-22.5-24.84-55.88t24.84-55.88q24.82-22.5,65.19-22.51t65.2,21.35q24.83,21.35,24.83,54.71,0,34.94-24.83,57.83t-65.2,22.89Q1129.38,381.72,1104.56,359.21ZM1096,428.29h147.46V849H1096Z" transform="translate(-131.51 -224.94)"/><path class="cls-1" d="M1428.2,828q-54.35-27.94-85-77.61t-30.66-112.54q0-62.08,30.66-111.77t84.6-77.22q53.93-27.54,122.24-27.56t122.63,27.56q54.32,27.56,84.6,76.83t30.27,112.16q0,62.86-30.27,112.54T1672.68,828q-54.33,27.94-122.63,27.94Q1482.52,855.94,1428.2,828Zm185.49-116q24.84-26.78,24.84-74.12,0-46.58-24.84-73t-63.64-26.39q-38.82,0-63.64,26.39t-24.84,73q0,47.34,24.84,74.12t63.64,26.77Q1588.86,738.74,1613.69,712Z" transform="translate(-131.51 -224.94)"/><polygon class="cls-1" points="0.43 456.83 256.44 202.83 421.63 202.83 0.43 623.91 0.43 456.83"/><polygon class="cls-1" points="211.03 413.37 421.63 623.91 256.59 623.91 128.44 495.83 211.03 413.37"/><polygon class="cls-1" points="117.44 340.83 117.44 41.83 0 159.26 0.43 456.83 117.44 340.83"/></svg>